<?xml version="1.0" encoding="utf-8"?>
<!-- Generator: Adobe Illustrator 23.0.6, SVG Export Plug-In . SVG Version: 6.00 Build 0)  -->
<svg version="1.1" id="Capa_1" xmlns="http://www.w3.org/2000/svg" xmlns:xlink="http://www.w3.org/1999/xlink" x="0px" y="0px"
	 viewBox="0 0 1308 1250" style="enable-background:new 0 0 1308 1250;" xml:space="preserve">
<style type="text/css">
	.st0{fill:none;stroke:#FF8519;stroke-width:64;stroke-linecap:round;stroke-linejoin:round;stroke-miterlimit:10;}
	.st1{fill:none;stroke:#E9901C;stroke-width:64;stroke-linecap:round;stroke-linejoin:round;stroke-miterlimit:10;}
	.st2{fill:none;stroke:#E2212A;stroke-width:64;stroke-linecap:round;stroke-linejoin:round;stroke-miterlimit:10;}
	.st3{fill:none;stroke:#26A447;stroke-width:64;stroke-linecap:round;stroke-linejoin:round;stroke-miterlimit:10;}
	.st4{fill:none;stroke:#4DB74D;stroke-width:64;stroke-linecap:round;stroke-linejoin:round;stroke-miterlimit:10;}
	.st5{fill:none;stroke:#30AB8D;stroke-width:64;stroke-linecap:round;stroke-linejoin:round;stroke-miterlimit:10;}
	.st6{fill:none;stroke:#FF8519;stroke-width:88;stroke-linecap:round;stroke-linejoin:round;stroke-miterlimit:10;}
	.st7{fill:none;stroke:#E9901C;stroke-width:88;stroke-linecap:round;stroke-linejoin:round;stroke-miterlimit:10;}
	.st8{fill:none;stroke:#E2212A;stroke-width:88;stroke-linecap:round;stroke-linejoin:round;stroke-miterlimit:10;}
	.st9{fill:none;stroke:#26A447;stroke-width:88;stroke-linecap:round;stroke-linejoin:round;stroke-miterlimit:10;}
	.st10{fill:none;stroke:#4DB74D;stroke-width:88;stroke-linecap:round;stroke-linejoin:round;stroke-miterlimit:10;}
	.st11{fill:none;stroke:#30AB8D;stroke-width:88;stroke-linecap:round;stroke-linejoin:round;stroke-miterlimit:10;}
	.st12{fill:#404040;}
	.st13{fill:#7A7979;}
</style>
<g>
	<line class="st0" x1="467.5" y1="123.3" x2="544.7" y2="200.5"/>
	<line class="st1" x1="460.8" y1="606.6" x2="460.8" y2="116.6"/>
	<line class="st2" x1="719.2" y1="354.9" x2="460.8" y2="606.6"/>
	<line class="st3" x1="834.2" y1="545.6" x2="758" y2="467.4"/>
	<line class="st4" x1="847.2" y1="62.4" x2="840.8" y2="552.4"/>
	<line class="st5" x1="585.6" y1="310.7" x2="847.2" y2="62.4"/>
</g>
<g>
	<line class="st6" x1="1634.4" y1="226.4" x2="1778.2" y2="370.3"/>
	<line class="st7" x1="1621.9" y1="1127" x2="1621.9" y2="213.9"/>
	<line class="st8" x1="2103.4" y1="657.9" x2="1621.9" y2="1127"/>
	<line class="st9" x1="2317.8" y1="1013.3" x2="2175.9" y2="867.6"/>
	<line class="st10" x1="2342.1" y1="113" x2="2330.1" y2="1026"/>
	<line class="st11" x1="1854.5" y1="575.7" x2="2342.1" y2="113"/>
</g>
<g>
	<path class="st12" d="M56.8,847.2V711.6h12.8v58.2h80.2v-58.2h12.8v135.6h-12.8v-66.5H69.6v66.5H56.8z"/>
	<path class="st12" d="M180.6,847.2l53.3-135.6h14.5l52,135.6h-13.2l-15.6-42.6h-61.8l-16,42.6H180.6z M214.1,793.7h53.1l-26.6-71.2
		L214.1,793.7z"/>
	<path class="st12" d="M318.6,847.2V711.6h49c7.9,0,14.7,0.8,20.3,2.4c5.7,1.6,10.3,4,13.8,7c3.6,3,6.2,6.6,7.8,10.8
		c1.6,4.2,2.4,8.8,2.4,13.8c0,4.8-0.6,8.9-1.9,12.3c-1.3,3.5-2.9,6.3-4.9,8.7c-2,2.3-4.3,4.1-6.9,5.5c-2.6,1.3-5.2,2.2-8,2.7v0.4
		c9.4,1.4,16.4,5.1,21,11.1c4.6,6,6.9,13.6,6.9,22.6c0,7-1.1,13-3.3,17.9c-2.2,4.9-5.2,8.9-9.1,11.9c-3.9,3-8.6,5.2-14,6.5
		c-5.5,1.3-11.4,2-17.8,2H318.6z M331.4,771.5h32.4c6.7,0,12.2-0.6,16.8-1.7s8.2-2.8,10.9-5c2.8-2.2,4.7-4.9,5.9-8.1
		c1.2-3.2,1.8-6.9,1.8-11c0-4.3-0.7-7.9-2.1-10.8c-1.4-2.9-3.6-5.3-6.6-7.2c-3-1.8-6.9-3.1-11.8-4c-4.8-0.8-10.8-1.2-17.8-1.2h-29.6
		V771.5z M331.4,836.3H364c7,0,13.2-0.3,18.4-0.9c5.2-0.6,9.5-1.9,12.9-3.9c3.4-1.9,5.9-4.7,7.6-8.3c1.7-3.6,2.5-8.3,2.5-14.2
		c0-5.7-0.9-10.2-2.8-13.7c-1.9-3.5-4.6-6.1-8.1-8c-3.5-1.9-7.7-3.2-12.6-3.9c-4.9-0.7-10.4-1-16.4-1h-34.1V836.3z"/>
	<path class="st12" d="M448.8,847.2V711.6h12.8v135.6H448.8z"/>
	<path class="st12" d="M496.6,847.2V711.6h12.8v124.7h72.7v10.9H496.6z"/>
	<path class="st12" d="M605.9,847.2V711.6h12.8v135.6H605.9z"/>
	<path class="st12" d="M653.7,847.2V711.6h46.3c3.8,0,7.5,0.1,11.1,0.3c3.6,0.2,7.2,0.6,10.7,1.3c3.5,0.7,6.9,1.7,10.3,3.1
		c3.3,1.4,6.6,3.2,9.7,5.5c4.5,3.3,8.2,7.3,11.1,12c2.9,4.7,5.2,9.7,6.9,14.9c1.7,5.2,2.9,10.5,3.6,15.8c0.7,5.3,1,10.3,1,14.8
		s-0.3,9.1-0.8,13.8c-0.6,4.6-1.5,9.2-2.7,13.7c-1.3,4.5-2.9,8.7-5,12.8c-2.1,4.1-4.7,7.8-7.8,11.2c-3.1,3.5-6.6,6.3-10.3,8.5
		c-3.7,2.1-7.6,3.8-11.7,5c-4.1,1.2-8.3,2-12.7,2.4c-4.4,0.4-8.9,0.7-13.4,0.7H653.7z M666.5,836.3h30.7c5.8,0,11.2-0.3,16.3-1
		c5.1-0.7,10.3-2.4,15.5-5.2c4.5-2.3,8.2-5.3,11.1-9.2c2.9-3.9,5.2-8.1,6.9-12.7c1.7-4.6,2.9-9.4,3.6-14.4c0.7-5,1-9.9,1-14.5
		c0-4.9-0.3-9.9-0.9-15c-0.6-5.1-1.8-9.9-3.6-14.5c-1.8-4.6-4.1-8.8-7.2-12.6c-3-3.8-6.9-7-11.7-9.5c-4-2.1-8.8-3.5-14.3-4.1
		c-5.5-0.6-11.1-0.9-16.8-0.9h-30.7V836.3z"/>
	<path class="st12" d="M777.3,847.2l53.3-135.6h14.5l52,135.6h-13.2l-15.6-42.6h-61.8l-16,42.6H777.3z M810.8,793.7h53.1l-26.6-71.2
		L810.8,793.7z"/>
	<path class="st12" d="M915.3,847.2V711.6h46.3c3.8,0,7.5,0.1,11.1,0.3c3.6,0.2,7.2,0.6,10.7,1.3c3.5,0.7,6.9,1.7,10.3,3.1
		c3.3,1.4,6.6,3.2,9.7,5.5c4.5,3.3,8.2,7.3,11.1,12c2.9,4.7,5.2,9.7,6.9,14.9c1.7,5.2,2.9,10.5,3.6,15.8c0.7,5.3,1,10.3,1,14.8
		s-0.3,9.1-0.8,13.8c-0.6,4.6-1.5,9.2-2.7,13.7c-1.3,4.5-2.9,8.7-5,12.8c-2.1,4.1-4.7,7.8-7.8,11.2c-3.1,3.5-6.6,6.3-10.3,8.5
		c-3.7,2.1-7.6,3.8-11.7,5c-4.1,1.2-8.3,2-12.7,2.4c-4.4,0.4-8.9,0.7-13.4,0.7H915.3z M928.1,836.3h30.7c5.8,0,11.2-0.3,16.3-1
		c5.1-0.7,10.3-2.4,15.5-5.2c4.5-2.3,8.2-5.3,11.1-9.2c2.9-3.9,5.2-8.1,6.9-12.7c1.7-4.6,2.9-9.4,3.6-14.4c0.7-5,1-9.9,1-14.5
		c0-4.9-0.3-9.9-0.9-15c-0.6-5.1-1.8-9.9-3.6-14.5c-1.8-4.6-4.1-8.8-7.2-12.6c-3-3.8-6.9-7-11.7-9.5c-4-2.1-8.8-3.5-14.3-4.1
		c-5.5-0.6-11.1-0.9-16.8-0.9h-30.7V836.3z"/>
	<path class="st12" d="M1051.3,847.2V711.6h90.2v10.9h-77.4v49h69.9v10.9h-69.9v53.9h79.3v10.9H1051.3z"/>
	<path class="st12" d="M1171.7,806.7c0.5,6,1.9,11.1,4,15.4c2.2,4.2,5,7.6,8.5,10.3c3.5,2.6,7.4,4.6,12,5.7
		c4.5,1.2,9.4,1.8,14.5,1.8c6,0,11.2-0.8,15.6-2.3c4.4-1.5,8-3.5,10.7-6.1c2.8-2.6,4.8-5.6,6.1-8.9s2-7,2-10.7
		c0-5.3-1.2-9.5-3.6-12.8c-2.4-3.3-5.5-5.9-9.3-8c-3.8-2.1-8.2-3.7-13.2-5c-5-1.3-10-2.5-15.3-3.7c-5.2-1.2-10.3-2.6-15.3-4.2
		c-5-1.6-9.4-3.8-13.2-6.6c-3.8-2.8-6.9-6.3-9.3-10.6c-2.4-4.3-3.6-9.8-3.6-16.5c0-4.6,1-9.2,2.9-13.6c1.9-4.4,4.8-8.3,8.7-11.7
		c3.8-3.4,8.6-6.1,14.4-8.1c5.8-2,12.4-3,20-3c7.7,0,14.3,1.1,20.1,3.2c5.7,2.1,10.5,5.1,14.2,8.8c3.8,3.7,6.6,8,8.5,12.9
		c1.9,4.9,2.8,10.1,2.8,15.6h-12.2c0-5.1-0.9-9.6-2.7-13.4c-1.8-3.8-4.3-6.8-7.4-9.2c-3.1-2.4-6.7-4.1-10.7-5.3
		c-4-1.1-8.2-1.7-12.4-1.7c-6.5,0-12,0.9-16.5,2.7c-4.5,1.8-8,4.2-10.6,7.1c-2.6,2.9-4.5,6.1-5.5,9.6c-1,3.5-1.2,7-0.6,10.5
		c0.8,4.4,2.5,7.9,5.3,10.5c2.8,2.6,6.2,4.8,10.2,6.5c4,1.7,8.4,3.1,13.3,4.1c4.8,1.1,9.8,2.2,14.8,3.4c5,1.2,9.9,2.6,14.6,4.2
		c4.7,1.6,8.9,3.8,12.5,6.6c3.6,2.8,6.6,6.3,8.8,10.6c2.2,4.3,3.3,9.8,3.3,16.3c0,12.6-4.3,22.3-13,29.2
		c-8.7,6.9-20.8,10.4-36.5,10.4c-7,0-13.6-0.9-19.6-2.7c-6-1.8-11.2-4.6-15.6-8.3c-4.4-3.7-7.8-8.3-10.3-13.8
		c-2.4-5.5-3.7-11.9-3.7-19.3H1171.7z"/>
</g>
<g>
	<path class="st12" d="M98.4,1042.5V906.9h49.5c8.8,0,16,1,21.8,3c5.7,2,10.2,4.8,13.6,8.3c3.3,3.5,5.7,7.6,7,12.1
		c1.3,4.6,2,9.4,2,14.4c0,7.5-1.5,13.8-4.6,18.6c-3.1,4.9-7.1,8.8-12,11.6s-10.5,4.8-16.7,5.9c-6.2,1.1-12.5,1.7-18.7,1.7h-29v59.9
		H98.4z M140.5,971.7c6,0,11.4-0.4,16.2-1.1c4.8-0.8,8.8-2.2,12.1-4.2c3.3-2.1,5.9-4.9,7.7-8.5c1.8-3.6,2.7-8.3,2.7-14
		c0-8.5-2.8-15-8.4-19.4c-5.6-4.4-14.5-6.6-26.7-6.6h-33.2v53.9H140.5z"/>
	<path class="st12" d="M208.7,974.9c0-9.9,1.3-19.2,4-27.9c2.7-8.7,6.7-16.2,12-22.7c5.3-6.5,11.8-11.6,19.6-15.4
		c7.8-3.8,16.8-5.7,26.9-5.7c10.5,0,19.8,1.9,27.8,5.6c8,3.7,14.6,8.8,20,15.3c5.3,6.5,9.4,14.1,12.1,22.8c2.7,8.7,4,18.1,4,28
		c0,9.8-1.4,19-4,27.6c-2.7,8.6-6.7,16.1-12,22.6c-5.3,6.5-11.9,11.6-19.8,15.4c-7.9,3.8-17.1,5.7-27.5,5.7
		c-10.4,0-19.6-1.9-27.5-5.7c-7.9-3.8-14.5-8.9-19.8-15.4c-5.3-6.5-9.2-14-11.9-22.6C210,993.9,208.7,984.7,208.7,974.9z
		 M272,1035.1c8.8,0,16.4-1.7,22.7-5c6.3-3.3,11.6-7.8,15.6-13.3c4.1-5.5,7.1-11.9,9-19.2c1.9-7.3,2.9-14.9,2.9-22.8
		c0-9.4-1.2-17.9-3.5-25.3c-2.3-7.5-5.7-13.8-10.1-19.1c-4.4-5.3-9.7-9.3-16-12.1c-6.3-2.8-13.3-4.1-21.1-4.1
		c-8.7,0-16.2,1.7-22.5,5.1c-6.3,3.4-11.6,7.9-15.6,13.5c-4.1,5.6-7.1,12-9,19.3c-1.9,7.3-2.9,14.9-2.9,22.8c0,8,1,15.7,2.9,23
		c1.9,7.3,5,13.7,9,19.2c4.1,5.5,9.3,9.9,15.6,13.2C255.5,1033.5,263.1,1035.1,272,1035.1z"/>
	<path class="st12" d="M360.5,1042.5V906.9h46.3c3.8,0,7.5,0.1,11.1,0.3c3.6,0.2,7.2,0.6,10.7,1.3c3.5,0.7,6.9,1.7,10.3,3.1
		c3.3,1.4,6.6,3.2,9.7,5.5c4.5,3.3,8.2,7.3,11.1,12c2.9,4.7,5.2,9.7,6.9,14.9c1.7,5.2,2.9,10.5,3.6,15.8c0.7,5.3,1,10.3,1,14.8
		s-0.3,9.1-0.8,13.8c-0.6,4.6-1.5,9.2-2.7,13.7c-1.3,4.5-2.9,8.7-5,12.8c-2.1,4.1-4.7,7.8-7.8,11.2c-3.1,3.5-6.6,6.3-10.3,8.5
		c-3.7,2.1-7.6,3.8-11.7,5c-4.1,1.2-8.3,2-12.7,2.4c-4.4,0.4-8.9,0.7-13.4,0.7H360.5z M373.4,1031.6h30.7c5.8,0,11.2-0.3,16.3-1
		c5.1-0.7,10.3-2.4,15.5-5.2c4.5-2.3,8.2-5.3,11.1-9.2c2.9-3.9,5.2-8.1,6.9-12.7c1.7-4.6,2.9-9.4,3.6-14.4c0.7-5,1-9.9,1-14.5
		c0-4.9-0.3-9.9-0.9-15c-0.6-5.1-1.8-9.9-3.6-14.5c-1.8-4.6-4.1-8.8-7.2-12.6c-3-3.8-6.9-7-11.7-9.5c-4-2.1-8.8-3.5-14.3-4.1
		c-5.5-0.6-11.1-0.9-16.8-0.9h-30.7V1031.6z"/>
	<path class="st12" d="M496.5,1042.5V906.9h90.2v10.9h-77.4v49h69.9v10.9h-69.9v53.9h79.3v10.9H496.5z"/>
	<path class="st12" d="M624.2,980.9v61.6l-12.8-0.2V906.9h53.1c14.9,0,26.4,2.8,34.3,8.4c7.9,5.6,11.9,14.7,11.9,27.2
		c0,8.5-1.7,15.3-5.2,20.3c-3.5,5-9.1,9.3-16.9,12.8c4,1.4,7.2,3.4,9.4,6c2.3,2.6,4,5.7,5.1,9s1.9,7,2.2,10.7
		c0.3,3.8,0.5,7.4,0.7,10.9c0.1,5.2,0.3,9.4,0.7,12.8c0.3,3.4,0.7,6.2,1.1,8.3c0.4,2.1,1,3.8,1.6,5c0.6,1.2,1.4,2.1,2.3,2.7v1.1
		l-14.1,0.2c-1.4-2.3-2.4-5.4-2.9-9.4c-0.6-4-1-8.2-1.3-12.6c-0.3-4.4-0.6-8.7-0.8-12.8s-0.5-7.5-1-10.2c-0.8-3.6-2-6.6-3.7-8.8
		c-1.7-2.2-3.7-3.9-6.1-5c-2.4-1.1-5.1-1.9-8-2.3c-3-0.4-6-0.6-9.1-0.6H624.2z M664.2,970c4.8,0,9.2-0.5,13.3-1.5
		c4.1-1,7.6-2.6,10.6-4.8c3-2.2,5.4-5,7.2-8.4c1.8-3.4,2.6-7.5,2.6-12.2c0-5-0.9-9.2-2.7-12.4c-1.8-3.3-4.3-5.8-7.3-7.7
		c-3.1-1.9-6.6-3.2-10.5-4c-4-0.8-8.1-1.1-12.3-1.1h-40.7V970H664.2z"/>
	<path class="st12" d="M732,974.9c0-9.9,1.3-19.2,4-27.9c2.7-8.7,6.7-16.2,12-22.7c5.3-6.5,11.8-11.6,19.6-15.4
		c7.8-3.8,16.8-5.7,26.9-5.7c10.5,0,19.8,1.9,27.8,5.6c8,3.7,14.6,8.8,20,15.3c5.3,6.5,9.4,14.1,12.1,22.8c2.7,8.7,4,18.1,4,28
		c0,9.8-1.4,19-4,27.6c-2.7,8.6-6.7,16.1-12,22.6c-5.3,6.5-11.9,11.6-19.8,15.4c-7.9,3.8-17.1,5.7-27.5,5.7
		c-10.4,0-19.6-1.9-27.5-5.7c-7.9-3.8-14.5-8.9-19.8-15.4c-5.3-6.5-9.2-14-11.9-22.6C733.3,993.9,732,984.7,732,974.9z
		 M795.3,1035.1c8.8,0,16.4-1.7,22.7-5c6.3-3.3,11.6-7.8,15.6-13.3c4.1-5.5,7.1-11.9,9-19.2c1.9-7.3,2.9-14.9,2.9-22.8
		c0-9.4-1.2-17.9-3.5-25.3c-2.3-7.5-5.7-13.8-10.1-19.1c-4.4-5.3-9.7-9.3-16-12.1c-6.3-2.8-13.3-4.1-21.1-4.1
		c-8.7,0-16.2,1.7-22.5,5.1c-6.3,3.4-11.6,7.9-15.6,13.5c-4.1,5.6-7.1,12-9,19.3c-1.9,7.3-2.9,14.9-2.9,22.8c0,8,1,15.7,2.9,23
		c1.9,7.3,5,13.7,9,19.2c4.1,5.5,9.3,9.9,15.6,13.2C778.7,1033.5,786.3,1035.1,795.3,1035.1z"/>
	<path class="st12" d="M889.1,1002c0.5,6,1.9,11.1,4,15.4c2.2,4.2,5,7.6,8.5,10.3c3.5,2.6,7.4,4.6,12,5.7c4.5,1.2,9.4,1.8,14.5,1.8
		c6,0,11.2-0.8,15.6-2.3c4.4-1.5,8-3.5,10.7-6.1c2.8-2.6,4.8-5.6,6.1-8.9c1.3-3.4,2-7,2-10.7c0-5.3-1.2-9.5-3.6-12.8
		c-2.4-3.3-5.5-5.9-9.3-8c-3.8-2.1-8.2-3.7-13.2-5c-5-1.3-10-2.5-15.3-3.7c-5.2-1.2-10.3-2.6-15.3-4.2c-5-1.6-9.4-3.8-13.2-6.6
		c-3.8-2.8-6.9-6.3-9.3-10.6c-2.4-4.3-3.6-9.8-3.6-16.5c0-4.6,1-9.2,2.9-13.6c1.9-4.4,4.8-8.3,8.7-11.7c3.8-3.4,8.6-6.1,14.4-8.1
		c5.8-2,12.4-3,20-3c7.7,0,14.3,1.1,20.1,3.2c5.7,2.1,10.5,5.1,14.2,8.8c3.8,3.7,6.6,8,8.5,12.9c1.9,4.9,2.8,10.1,2.8,15.6h-12.2
		c0-5.1-0.9-9.6-2.7-13.4c-1.8-3.8-4.3-6.8-7.4-9.2c-3.1-2.4-6.7-4.1-10.7-5.3c-4-1.1-8.2-1.7-12.4-1.7c-6.5,0-12,0.9-16.5,2.7
		c-4.5,1.8-8,4.2-10.6,7.1c-2.6,2.9-4.5,6.1-5.5,9.6c-1,3.5-1.2,7-0.6,10.5c0.8,4.4,2.5,7.9,5.3,10.5c2.8,2.6,6.2,4.8,10.2,6.5
		c4,1.7,8.4,3.1,13.3,4.1c4.8,1.1,9.8,2.2,14.8,3.4c5,1.2,9.9,2.6,14.6,4.2c4.7,1.6,8.9,3.8,12.5,6.6c3.6,2.8,6.6,6.3,8.8,10.6
		c2.2,4.3,3.3,9.8,3.3,16.3c0,12.6-4.3,22.3-13,29.2c-8.7,6.9-20.8,10.4-36.5,10.4c-7,0-13.6-0.9-19.6-2.7c-6-1.8-11.2-4.6-15.6-8.3
		c-4.4-3.7-7.8-8.3-10.3-13.8c-2.4-5.5-3.7-11.9-3.7-19.3H889.1z"/>
	<path class="st12" d="M986.4,1042.5l53.3-135.6h14.5l52,135.6h-13.2l-15.6-42.6h-61.8l-16,42.6H986.4z M1020,989h53.1l-26.6-71.2
		L1020,989z"/>
	<path class="st12" d="M1129.8,1002c0.5,6,1.9,11.1,4,15.4c2.2,4.2,5,7.6,8.5,10.3c3.5,2.6,7.4,4.6,12,5.7c4.5,1.2,9.4,1.8,14.5,1.8
		c6,0,11.2-0.8,15.6-2.3c4.4-1.5,8-3.5,10.7-6.1c2.8-2.6,4.8-5.6,6.1-8.9s2-7,2-10.7c0-5.3-1.2-9.5-3.6-12.8c-2.4-3.3-5.5-5.9-9.3-8
		c-3.8-2.1-8.2-3.7-13.2-5c-5-1.3-10-2.5-15.3-3.7c-5.2-1.2-10.3-2.6-15.3-4.2c-5-1.6-9.4-3.8-13.2-6.6c-3.8-2.8-6.9-6.3-9.3-10.6
		c-2.4-4.3-3.6-9.8-3.6-16.5c0-4.6,1-9.2,2.9-13.6c1.9-4.4,4.8-8.3,8.7-11.7c3.8-3.4,8.6-6.1,14.4-8.1c5.8-2,12.4-3,20-3
		c7.7,0,14.3,1.1,20.1,3.2c5.7,2.1,10.5,5.1,14.2,8.8c3.8,3.7,6.6,8,8.5,12.9s2.8,10.1,2.8,15.6h-12.2c0-5.1-0.9-9.6-2.7-13.4
		c-1.8-3.8-4.3-6.8-7.4-9.2c-3.1-2.4-6.7-4.1-10.7-5.3c-4-1.1-8.2-1.7-12.4-1.7c-6.5,0-12,0.9-16.5,2.7c-4.5,1.8-8,4.2-10.6,7.1
		c-2.6,2.9-4.5,6.1-5.5,9.6c-1,3.5-1.2,7-0.6,10.5c0.8,4.4,2.5,7.9,5.3,10.5c2.8,2.6,6.2,4.8,10.2,6.5c4,1.7,8.4,3.1,13.3,4.1
		c4.8,1.1,9.8,2.2,14.8,3.4c5,1.2,9.9,2.6,14.6,4.2c4.7,1.6,8.9,3.8,12.5,6.6c3.6,2.8,6.6,6.3,8.8,10.6c2.2,4.3,3.3,9.8,3.3,16.3
		c0,12.6-4.3,22.3-13,29.2c-8.7,6.9-20.8,10.4-36.5,10.4c-7,0-13.6-0.9-19.6-2.7c-6-1.8-11.2-4.6-15.6-8.3
		c-4.4-3.7-7.8-8.3-10.3-13.8c-2.4-5.5-3.7-11.9-3.7-19.3H1129.8z"/>
</g>
<g>
	<path class="st13" d="M43.7,1161.4v-55.9h20.4c3.6,0,6.6,0.4,9,1.2c2.4,0.8,4.2,2,5.6,3.4c1.4,1.4,2.3,3.1,2.9,5
		c0.5,1.9,0.8,3.9,0.8,5.9c0,3.1-0.6,5.7-1.9,7.7c-1.3,2-2.9,3.6-4.9,4.8c-2,1.2-4.3,2-6.9,2.4c-2.6,0.5-5.1,0.7-7.7,0.7H49v24.7
		H43.7z M61.1,1132.2c2.5,0,4.7-0.2,6.7-0.5c2-0.3,3.6-0.9,5-1.7s2.4-2,3.2-3.5c0.7-1.5,1.1-3.4,1.1-5.8c0-3.5-1.2-6.2-3.5-8
		c-2.3-1.8-6-2.7-11-2.7H49v22.2H61.1z"/>
	<path class="st13" d="M86.2,1161.4l22-55.9h6l21.4,55.9h-5.4l-6.4-17.5H98.2l-6.6,17.5H86.2z M100,1139.3h21.9L111,1110L100,1139.3
		z"/>
	<path class="st13" d="M148.3,1136v25.4l-5.3-0.1v-55.8h21.9c6.2,0,10.9,1.2,14.1,3.5c3.3,2.3,4.9,6,4.9,11.2c0,3.5-0.7,6.3-2.1,8.4
		c-1.4,2.1-3.7,3.8-6.9,5.3c1.7,0.6,2.9,1.4,3.9,2.5s1.6,2.3,2.1,3.7c0.5,1.4,0.8,2.9,0.9,4.4c0.1,1.6,0.2,3.1,0.3,4.5
		c0.1,2.1,0.1,3.9,0.3,5.3c0.1,1.4,0.3,2.5,0.5,3.4c0.2,0.9,0.4,1.6,0.7,2.1c0.3,0.5,0.6,0.9,0.9,1.1v0.5l-5.8,0.1
		c-0.6-0.9-1-2.2-1.2-3.9c-0.2-1.7-0.4-3.4-0.5-5.2c-0.1-1.8-0.2-3.6-0.3-5.3c-0.1-1.7-0.2-3.1-0.4-4.2c-0.3-1.5-0.8-2.7-1.5-3.6
		c-0.7-0.9-1.5-1.6-2.5-2.1c-1-0.5-2.1-0.8-3.3-0.9c-1.2-0.2-2.5-0.2-3.8-0.2H148.3z M164.7,1131.5c2,0,3.8-0.2,5.5-0.6
		c1.7-0.4,3.1-1.1,4.4-2c1.2-0.9,2.2-2.1,2.9-3.5c0.7-1.4,1.1-3.1,1.1-5c0-2.1-0.4-3.8-1.1-5.1c-0.8-1.3-1.8-2.4-3-3.2
		c-1.3-0.8-2.7-1.3-4.3-1.6c-1.6-0.3-3.3-0.5-5.1-0.5h-16.8v21.5H164.7z"/>
	<path class="st13" d="M189.7,1161.4l22-55.9h6l21.4,55.9h-5.4l-6.4-17.5h-25.4l-6.6,17.5H189.7z M203.5,1139.3h21.9l-10.9-29.3
		L203.5,1139.3z"/>
	<path class="st13" d="M291.9,1137v-4.5h23.9v28.9h-4.5v-9.5c-1,1.7-2.1,3.2-3.4,4.5c-1.3,1.4-2.7,2.5-4.4,3.5
		c-1.7,1-3.6,1.7-5.7,2.2c-2.2,0.5-4.6,0.8-7.4,0.8c-3.5,0-6.8-0.6-9.8-1.9c-3-1.2-5.6-3.1-7.8-5.5c-2.2-2.5-3.9-5.5-5.1-9.3
		c-1.2-3.7-1.8-8.1-1.8-13c0-4.1,0.5-7.9,1.6-11.4c1-3.5,2.6-6.6,4.8-9.2c2.1-2.6,4.8-4.7,8.1-6.2c3.2-1.5,7-2.2,11.4-2.2
		c2.9,0,5.7,0.4,8.3,1.1c2.6,0.7,4.9,1.8,6.9,3.3c2,1.5,3.8,3.3,5.2,5.5c1.4,2.2,2.4,4.8,3,7.8h-5.4c-0.5-2.1-1.3-3.9-2.4-5.6
		c-1.1-1.7-2.4-3-4-4.1c-1.6-1.1-3.3-2-5.2-2.6c-1.9-0.6-3.9-0.9-6-0.9c-3.7,0-6.8,0.6-9.5,1.9s-4.8,3.1-6.5,5.5
		c-1.7,2.4-3,5.2-3.8,8.5c-0.8,3.3-1.2,6.9-1.2,10.8c0,3.1,0.5,6.1,1.4,8.8c0.9,2.8,2.2,5.2,4,7.4c1.7,2.1,3.9,3.8,6.4,5
		c2.5,1.2,5.4,1.9,8.6,1.9c1.5,0,3.1-0.2,4.7-0.5c1.6-0.3,3.2-0.9,4.7-1.7c1.5-0.8,2.9-1.8,4.2-3c1.3-1.2,2.4-2.8,3.3-4.6
		c0.9-1.8,1.5-3.6,1.8-5.5c0.3-1.9,0.5-3.9,0.6-6.1H291.9z"/>
	<path class="st13" d="M328.5,1161.4v-55.9h37.2v4.5h-31.9v20.2h28.8v4.5h-28.8v22.2h32.7v4.5H328.5z"/>
	<path class="st13" d="M381.1,1136v25.4l-5.3-0.1v-55.8h21.9c6.2,0,10.9,1.2,14.1,3.5c3.3,2.3,4.9,6,4.9,11.2c0,3.5-0.7,6.3-2.1,8.4
		c-1.4,2.1-3.7,3.8-6.9,5.3c1.7,0.6,2.9,1.4,3.9,2.5c0.9,1.1,1.6,2.3,2.1,3.7c0.5,1.4,0.8,2.9,0.9,4.4c0.1,1.6,0.2,3.1,0.3,4.5
		c0.1,2.1,0.1,3.9,0.3,5.3c0.1,1.4,0.3,2.5,0.5,3.4c0.2,0.9,0.4,1.6,0.7,2.1c0.3,0.5,0.6,0.9,0.9,1.1v0.5l-5.8,0.1
		c-0.6-0.9-1-2.2-1.2-3.9c-0.2-1.7-0.4-3.4-0.5-5.2c-0.1-1.8-0.2-3.6-0.3-5.3c-0.1-1.7-0.2-3.1-0.4-4.2c-0.3-1.5-0.8-2.7-1.5-3.6
		c-0.7-0.9-1.5-1.6-2.5-2.1c-1-0.5-2.1-0.8-3.3-0.9c-1.2-0.2-2.5-0.2-3.8-0.2H381.1z M397.5,1131.5c2,0,3.8-0.2,5.5-0.6
		s3.1-1.1,4.4-2c1.2-0.9,2.2-2.1,2.9-3.5c0.7-1.4,1.1-3.1,1.1-5c0-2.1-0.4-3.8-1.1-5.1c-0.8-1.3-1.8-2.4-3-3.2
		c-1.3-0.8-2.7-1.3-4.3-1.6c-1.6-0.3-3.3-0.5-5.1-0.5h-16.8v21.5H397.5z"/>
	<path class="st13" d="M427.6,1161.4v-55.9h37.2v4.5h-31.9v20.2h28.8v4.5h-28.8v22.2h32.7v4.5H427.6z"/>
	<path class="st13" d="M480.3,1112.7h-0.2v48.7h-5.3v-55.9h6l32.3,48.8h0.2v-48.8h5.3v55.9h-6.1L480.3,1112.7z"/>
	<path class="st13" d="M526,1105.5h40.6v4.5h-17.7v51.4h-5.3V1110H526V1105.5z"/>
	<path class="st13" d="M574.1,1161.4v-55.9h37.2v4.5h-31.9v20.2h28.8v4.5h-28.8v22.2h32.7v4.5H574.1z"/>
	<path class="st13" d="M623.7,1144.7c0.2,2.5,0.8,4.6,1.7,6.3c0.9,1.7,2.1,3.1,3.5,4.2c1.4,1.1,3.1,1.9,4.9,2.4
		c1.9,0.5,3.9,0.7,6,0.7c2.5,0,4.6-0.3,6.4-0.9c1.8-0.6,3.3-1.5,4.4-2.5c1.1-1.1,2-2.3,2.5-3.7s0.8-2.9,0.8-4.4
		c0-2.2-0.5-3.9-1.5-5.3c-1-1.3-2.3-2.4-3.8-3.3c-1.6-0.9-3.4-1.5-5.4-2.1c-2-0.5-4.1-1-6.3-1.5c-2.1-0.5-4.2-1.1-6.3-1.7
		c-2-0.7-3.9-1.6-5.4-2.7c-1.6-1.1-2.9-2.6-3.8-4.4c-1-1.8-1.5-4-1.5-6.8c0-1.9,0.4-3.8,1.2-5.6c0.8-1.8,2-3.4,3.6-4.8
		c1.6-1.4,3.6-2.5,5.9-3.3c2.4-0.8,5.1-1.2,8.2-1.2c3.2,0,5.9,0.4,8.3,1.3c2.4,0.9,4.3,2.1,5.9,3.6s2.7,3.3,3.5,5.3
		c0.8,2,1.2,4.2,1.2,6.4h-5c0-2.1-0.4-4-1.1-5.5c-0.8-1.6-1.8-2.8-3.1-3.8c-1.3-1-2.8-1.7-4.4-2.2c-1.7-0.5-3.4-0.7-5.1-0.7
		c-2.7,0-5,0.4-6.8,1.1c-1.8,0.8-3.3,1.7-4.4,2.9c-1.1,1.2-1.8,2.5-2.2,4c-0.4,1.4-0.5,2.9-0.2,4.3c0.3,1.8,1,3.3,2.2,4.3
		c1.1,1.1,2.5,2,4.2,2.7c1.7,0.7,3.5,1.3,5.5,1.7c2,0.4,4,0.9,6.1,1.4c2.1,0.5,4.1,1.1,6,1.7c1.9,0.7,3.7,1.6,5.2,2.7
		c1.5,1.1,2.7,2.6,3.6,4.4c0.9,1.8,1.4,4,1.4,6.7c0,5.2-1.8,9.2-5.4,12c-3.6,2.8-8.6,4.3-15,4.3c-2.9,0-5.6-0.4-8.1-1.1
		s-4.6-1.9-6.4-3.4c-1.8-1.5-3.2-3.4-4.2-5.7c-1-2.2-1.5-4.9-1.5-8H623.7z"/>
	<path class="st13" d="M690.5,1161.4v-55.9h19.1c1.6,0,3.1,0,4.6,0.1c1.5,0.1,3,0.3,4.4,0.5c1.4,0.3,2.9,0.7,4.2,1.3
		c1.4,0.6,2.7,1.3,4,2.2c1.9,1.3,3.4,3,4.6,4.9c1.2,1.9,2.1,4,2.8,6.1c0.7,2.1,1.2,4.3,1.5,6.5c0.3,2.2,0.4,4.2,0.4,6.1
		c0,1.9-0.1,3.8-0.3,5.7c-0.2,1.9-0.6,3.8-1.1,5.6c-0.5,1.8-1.2,3.6-2.1,5.3s-1.9,3.2-3.2,4.6c-1.3,1.4-2.7,2.6-4.2,3.5
		c-1.5,0.9-3.1,1.6-4.8,2.1c-1.7,0.5-3.4,0.8-5.2,1c-1.8,0.2-3.6,0.3-5.5,0.3H690.5z M695.8,1156.9h12.6c2.4,0,4.6-0.1,6.7-0.4
		c2.1-0.3,4.2-1,6.4-2.1c1.9-0.9,3.4-2.2,4.6-3.8c1.2-1.6,2.1-3.3,2.8-5.2s1.2-3.9,1.5-5.9c0.3-2.1,0.4-4.1,0.4-6
		c0-2-0.1-4.1-0.4-6.2c-0.3-2.1-0.8-4.1-1.5-6c-0.7-1.9-1.7-3.6-2.9-5.2c-1.2-1.6-2.8-2.9-4.8-3.9c-1.7-0.9-3.6-1.4-5.9-1.7
		c-2.3-0.3-4.6-0.4-6.9-0.4h-12.6V1156.9z"/>
	<path class="st13" d="M746.5,1161.4v-55.9h37.2v4.5h-31.9v20.2h28.8v4.5h-28.8v22.2h32.7v4.5H746.5z"/>
	<path class="st13" d="M815.2,1161.4v-55.9h20.4c3.6,0,6.6,0.4,9,1.2c2.4,0.8,4.2,2,5.6,3.4c1.4,1.4,2.3,3.1,2.9,5
		c0.5,1.9,0.8,3.9,0.8,5.9c0,3.1-0.6,5.7-1.9,7.7c-1.3,2-2.9,3.6-4.9,4.8c-2,1.2-4.3,2-6.9,2.4c-2.6,0.5-5.1,0.7-7.7,0.7h-11.9v24.7
		H815.2z M832.6,1132.2c2.5,0,4.7-0.2,6.7-0.5c2-0.3,3.6-0.9,5-1.7s2.4-2,3.2-3.5c0.7-1.5,1.1-3.4,1.1-5.8c0-3.5-1.2-6.2-3.5-8
		c-2.3-1.8-6-2.7-11-2.7h-13.7v22.2H832.6z"/>
	<path class="st13" d="M868.1,1136v25.4l-5.3-0.1v-55.8h21.9c6.2,0,10.9,1.2,14.1,3.5c3.3,2.3,4.9,6,4.9,11.2c0,3.5-0.7,6.3-2.1,8.4
		c-1.4,2.1-3.7,3.8-6.9,5.3c1.7,0.6,2.9,1.4,3.9,2.5c0.9,1.1,1.6,2.3,2.1,3.7c0.5,1.4,0.8,2.9,0.9,4.4c0.1,1.6,0.2,3.1,0.3,4.5
		c0.1,2.1,0.1,3.9,0.3,5.3c0.1,1.4,0.3,2.5,0.5,3.4c0.2,0.9,0.4,1.6,0.7,2.1c0.3,0.5,0.6,0.9,0.9,1.1v0.5l-5.8,0.1
		c-0.6-0.9-1-2.2-1.2-3.9c-0.2-1.7-0.4-3.4-0.5-5.2c-0.1-1.8-0.2-3.6-0.3-5.3c-0.1-1.7-0.2-3.1-0.4-4.2c-0.3-1.5-0.8-2.7-1.5-3.6
		c-0.7-0.9-1.5-1.6-2.5-2.1c-1-0.5-2.1-0.8-3.3-0.9c-1.2-0.2-2.5-0.2-3.8-0.2H868.1z M884.5,1131.5c2,0,3.8-0.2,5.5-0.6
		s3.1-1.1,4.4-2c1.2-0.9,2.2-2.1,2.9-3.5c0.7-1.4,1.1-3.1,1.1-5c0-2.1-0.4-3.8-1.1-5.1c-0.8-1.3-1.8-2.4-3-3.2
		c-1.3-0.8-2.7-1.3-4.3-1.6c-1.6-0.3-3.3-0.5-5.1-0.5h-16.8v21.5H884.5z"/>
	<path class="st13" d="M912.4,1133.5c0-4.1,0.6-7.9,1.7-11.5c1.1-3.6,2.8-6.7,4.9-9.3c2.2-2.7,4.9-4.8,8.1-6.3
		c3.2-1.6,6.9-2.3,11.1-2.3c4.3,0,8.2,0.8,11.4,2.3s6,3.6,8.2,6.3c2.2,2.7,3.9,5.8,5,9.4c1.1,3.6,1.7,7.4,1.7,11.5
		c0,4-0.6,7.8-1.7,11.4c-1.1,3.5-2.8,6.6-4.9,9.3c-2.2,2.7-4.9,4.8-8.1,6.3c-3.3,1.6-7,2.3-11.3,2.3c-4.3,0-8.1-0.8-11.3-2.3
		c-3.3-1.6-6-3.7-8.1-6.3c-2.2-2.7-3.8-5.8-4.9-9.3C913,1141.3,912.4,1137.6,912.4,1133.5z M938.5,1158.3c3.6,0,6.7-0.7,9.3-2.1
		c2.6-1.4,4.8-3.2,6.4-5.5c1.7-2.3,2.9-4.9,3.7-7.9c0.8-3,1.2-6.1,1.2-9.4c0-3.9-0.5-7.4-1.4-10.4c-1-3.1-2.3-5.7-4.2-7.9
		c-1.8-2.2-4-3.8-6.6-5c-2.6-1.1-5.5-1.7-8.7-1.7c-3.6,0-6.7,0.7-9.3,2.1c-2.6,1.4-4.8,3.2-6.4,5.5c-1.7,2.3-2.9,5-3.7,8
		c-0.8,3-1.2,6.1-1.2,9.4c0,3.3,0.4,6.5,1.2,9.5c0.8,3,2,5.6,3.7,7.9c1.7,2.3,3.8,4.1,6.4,5.4S934.8,1158.3,938.5,1158.3z"/>
	<path class="st13" d="M992.1,1132.4l16.8-26.9h6.1l-20.2,31.5v24.4h-5.3v-24l-19.9-31.9h6.1L992.1,1132.4z"/>
	<path class="st13" d="M1022.3,1161.4v-55.9h37.2v4.5h-31.9v20.2h28.8v4.5h-28.8v22.2h32.7v4.5H1022.3z"/>
	<path class="st13" d="M1109.4,1121.7c-1.1-4.8-3.1-8.1-6.1-10.2c-2.9-2-6.8-3-11.6-3c-3.4,0-6.3,0.7-8.7,2c-2.4,1.3-4.4,3.2-6,5.4
		c-1.6,2.3-2.7,4.9-3.5,7.9c-0.8,3-1.1,6.1-1.1,9.4c0,3.1,0.3,6.2,1,9.2c0.6,3,1.7,5.7,3.2,8c1.5,2.4,3.5,4.3,6.1,5.7
		c2.5,1.4,5.7,2.2,9.5,2.2c2.4,0,4.5-0.4,6.5-1.2c2-0.8,3.7-1.8,5.2-3.2c1.5-1.4,2.7-3,3.7-4.8c1-1.9,1.8-3.9,2.3-6.1h5.5
		c-0.6,2.7-1.5,5.2-2.7,7.6c-1.2,2.4-2.8,4.5-4.7,6.3c-1.9,1.8-4.3,3.2-7.1,4.3c-2.8,1.1-6,1.6-9.7,1.6c-4.3,0-8-0.8-11-2.4
		c-3.1-1.6-5.5-3.7-7.5-6.4c-1.9-2.7-3.3-5.8-4.2-9.3c-0.9-3.5-1.3-7.3-1.3-11.3c0-5.3,0.7-9.9,2-13.6c1.3-3.7,3.1-6.8,5.5-9.1
		s5.1-4.1,8.2-5.1c3.2-1.1,6.6-1.6,10.3-1.6c2.8,0,5.5,0.4,8,1.1c2.5,0.8,4.6,1.9,6.5,3.4s3.4,3.3,4.7,5.5c1.2,2.2,2.1,4.7,2.5,7.6
		H1109.4z"/>
	<path class="st13" d="M1120.7,1105.5h40.6v4.5h-17.7v51.4h-5.3V1110h-17.7V1105.5z"/>
	<path class="st13" d="M1166.7,1133.5c0-4.1,0.6-7.9,1.7-11.5c1.1-3.6,2.8-6.7,4.9-9.3c2.2-2.7,4.9-4.8,8.1-6.3
		c3.2-1.6,6.9-2.3,11.1-2.3c4.3,0,8.2,0.8,11.4,2.3s6,3.6,8.2,6.3c2.2,2.7,3.9,5.8,5,9.4c1.1,3.6,1.7,7.4,1.7,11.5
		c0,4-0.6,7.8-1.7,11.4c-1.1,3.5-2.8,6.6-4.9,9.3c-2.2,2.7-4.9,4.8-8.1,6.3c-3.3,1.6-7,2.3-11.3,2.3c-4.3,0-8.1-0.8-11.3-2.3
		c-3.3-1.6-6-3.7-8.1-6.3c-2.2-2.7-3.8-5.8-4.9-9.3C1167.2,1141.3,1166.7,1137.6,1166.7,1133.5z M1192.8,1158.3
		c3.6,0,6.7-0.7,9.3-2.1c2.6-1.4,4.8-3.2,6.4-5.5c1.7-2.3,2.9-4.9,3.7-7.9c0.8-3,1.2-6.1,1.2-9.4c0-3.9-0.5-7.4-1.4-10.4
		c-1-3.1-2.3-5.7-4.2-7.9c-1.8-2.2-4-3.8-6.6-5c-2.6-1.1-5.5-1.7-8.7-1.7c-3.6,0-6.7,0.7-9.3,2.1c-2.6,1.4-4.8,3.2-6.4,5.5
		c-1.7,2.3-2.9,5-3.7,8c-0.8,3-1.2,6.1-1.2,9.4c0,3.3,0.4,6.5,1.2,9.5c0.8,3,2,5.6,3.7,7.9c1.7,2.3,3.8,4.1,6.4,5.4
		S1189.1,1158.3,1192.8,1158.3z"/>
	<path class="st13" d="M1231.4,1144.7c0.2,2.5,0.8,4.6,1.7,6.3c0.9,1.7,2.1,3.1,3.5,4.2c1.4,1.1,3.1,1.9,4.9,2.4
		c1.9,0.5,3.9,0.7,6,0.7c2.5,0,4.6-0.3,6.4-0.9c1.8-0.6,3.3-1.5,4.4-2.5c1.1-1.1,2-2.3,2.5-3.7s0.8-2.9,0.8-4.4
		c0-2.2-0.5-3.9-1.5-5.3c-1-1.3-2.3-2.4-3.8-3.3c-1.6-0.9-3.4-1.5-5.4-2.1c-2-0.5-4.1-1-6.3-1.5c-2.1-0.5-4.2-1.1-6.3-1.7
		c-2-0.7-3.9-1.6-5.4-2.7c-1.6-1.1-2.9-2.6-3.8-4.4s-1.5-4-1.5-6.8c0-1.9,0.4-3.8,1.2-5.6c0.8-1.8,2-3.4,3.6-4.8
		c1.6-1.4,3.6-2.5,5.9-3.3c2.4-0.8,5.1-1.2,8.2-1.2c3.2,0,5.9,0.4,8.3,1.3c2.4,0.9,4.3,2.1,5.9,3.6c1.6,1.5,2.7,3.3,3.5,5.3
		c0.8,2,1.2,4.2,1.2,6.4h-5c0-2.1-0.4-4-1.1-5.5c-0.8-1.6-1.8-2.8-3.1-3.8c-1.3-1-2.8-1.7-4.4-2.2c-1.7-0.5-3.4-0.7-5.1-0.7
		c-2.7,0-5,0.4-6.8,1.1c-1.8,0.8-3.3,1.7-4.4,2.9c-1.1,1.2-1.8,2.5-2.2,4c-0.4,1.4-0.5,2.9-0.2,4.3c0.3,1.8,1,3.3,2.2,4.3
		c1.1,1.1,2.5,2,4.2,2.7c1.7,0.7,3.5,1.3,5.5,1.7c2,0.4,4,0.9,6.1,1.4c2.1,0.5,4.1,1.1,6,1.7c1.9,0.7,3.7,1.6,5.2,2.7
		c1.5,1.1,2.7,2.6,3.6,4.4c0.9,1.8,1.4,4,1.4,6.7c0,5.2-1.8,9.2-5.4,12c-3.6,2.8-8.6,4.3-15,4.3c-2.9,0-5.6-0.4-8.1-1.1
		s-4.6-1.9-6.4-3.4c-1.8-1.5-3.2-3.4-4.2-5.7c-1-2.2-1.5-4.9-1.5-8H1231.4z"/>
</g>
</svg>
